<svg width="305" height="270" viewBox="0 0 305 270" fill="none" xmlns="http://www.w3.org/2000/svg">
<g style="mix-blend-mode:multiply">
<path fill-rule="evenodd" clip-rule="evenodd" d="M100 270C155.228 270 200 225.228 200 170C200 114.772 155.228 70 100 70C44.7715 70 0 114.772 0 170C0 225.228 44.7715 270 100 270ZM100 195C86.1929 195 75 183.807 75 170C75 156.193 86.1929 145 100 145C113.807 145 125 156.193 125 170C125 183.807 113.807 195 100 195Z" fill="url(#paint0_linear_1_11)"/>
</g>
<g style="mix-blend-mode:multiply">
<path fill-rule="evenodd" clip-rule="evenodd" d="M205 200C260.228 200 305 155.228 305 100C305 44.7715 260.228 0 205 0C149.772 0 105 44.7715 105 100C105 155.228 149.772 200 205 200ZM205 125C191.193 125 180 113.807 180 100C180 86.1929 191.193 75 205 75C218.807 75 230 86.1929 230 100C230 113.807 218.807 125 205 125Z" fill="url(#paint1_linear_1_11)"/>
</g>
<defs>
<linearGradient id="paint0_linear_1_11" x1="179" y1="105" x2="24" y2="238" gradientUnits="userSpaceOnUse">
<stop stop-color="#DBBFF7"/>
<stop offset="1" stop-color="#A0ABFA"/>
</linearGradient>
<linearGradient id="paint1_linear_1_11" x1="282" y1="43" x2="129" y2="155" gradientUnits="userSpaceOnUse">
<stop stop-color="#ED7474"/>
<stop offset="1" stop-color="#EB8FB0"/>
</linearGradient>
</defs>
</svg>
